<svg width="510" height="86" viewBox="0 0 510 86" fill="none" xmlns="http://www.w3.org/2000/svg">
<g filter="url(#filter0_d_10037_3031)">
<path d="M39.2546 62.393L39.6754 59.1358V53.105C32.1275 52.804 26.4877 52.0193 22.7559 50.7507C19.024 49.4608 16.2742 47.8483 14.5065 45.9133C13.4403 44.7737 12.6126 43.5053 12.0233 42.1077C11.4621 40.6887 10.5222 39.6245 9.20337 38.915L9.83467 38.2377C11.0974 38.8827 12.4582 39.2053 13.9173 39.2053C15.4044 39.2053 17.2984 39.1623 19.5992 39.0763C21.9 38.9903 24.4955 38.8935 27.3856 38.786C30.2757 38.657 32.338 38.571 33.5726 38.528C34.8072 38.485 35.7191 38.356 36.3083 38.141C36.8976 37.9045 37.3185 37.4853 37.571 36.8833L39.465 37.367C39.3808 37.539 39.3387 37.7647 39.3387 38.0443C39.3387 38.7537 40.1104 39.56 41.6536 40.463C43.1968 41.366 45.9887 41.8175 50.0292 41.8175C52.7509 41.8175 54.6869 41.4627 55.8374 40.7533C56.3425 40.4307 56.5949 40.0437 56.5949 39.5923C56.5949 38.5387 55.8374 37.84 54.3222 37.496C52.807 37.152 50.9691 36.8617 48.8086 36.6253C46.6762 36.3673 44.5297 36.163 42.3691 36.0125C40.2366 35.862 37.9218 35.647 35.4245 35.3675C32.9273 35.088 30.5703 34.787 28.3536 34.4645C26.137 34.1205 23.9764 33.626 21.872 32.981C19.7957 32.336 18.0139 31.5835 16.5267 30.7235C15.0396 29.842 13.8331 28.724 12.9072 27.3695C12.0093 25.9935 11.5603 24.4347 11.5603 22.6933C11.5603 20.9517 11.911 19.3607 12.6126 17.9203C13.3421 16.4797 14.3241 15.2435 15.5587 14.2115C16.7933 13.1795 18.2805 12.2657 20.0201 11.4703C21.7878 10.6747 23.6257 10.0297 25.5337 9.53528C27.4698 9.04075 29.5742 8.64301 31.847 8.34201C35.8033 7.78301 39.5351 7.50348 43.0425 7.50348C46.5499 7.50348 49.2155 7.54655 51.0394 7.63255C52.8912 7.69701 55.0517 7.83675 57.5209 8.05175C60.0182 8.24528 62.2629 8.57855 64.2551 9.05148C66.2753 9.50301 68.2675 10.0835 70.2317 10.793C74.3282 12.255 77.2043 14.5233 78.8598 17.5977C79.5332 18.6943 80.4592 19.7155 81.6376 20.6615L81.0905 21.4033C79.912 20.7797 78.5512 20.468 77.0079 20.468H76.4607C74.216 20.5325 71.0032 20.6615 66.8225 20.855C62.6698 21.027 59.9901 21.1345 58.7836 21.1775C57.6051 21.2205 56.7493 21.3495 56.2162 21.5645C55.7112 21.7795 55.3463 22.188 55.1219 22.79L53.27 22.403C53.3542 22.2095 53.3963 22.0053 53.3963 21.7903C53.3963 20.8873 52.4422 20.1133 50.5342 19.4683C48.6262 18.8017 46.4657 18.4685 44.0526 18.4685C39.3387 18.4685 36.9818 19.178 36.9818 20.597C36.9818 21.8655 40.5172 22.79 47.5881 23.3705C49.2436 23.521 51.1235 23.6715 53.2279 23.822C60.5513 24.4025 66.1631 25.1657 70.0632 26.1117C78.2565 28.0897 82.3532 31.863 82.3532 37.4315C82.3532 39.7105 81.7358 41.7637 80.5012 43.5913C79.2666 45.3973 77.6533 46.87 75.661 48.0095C73.6969 49.149 71.3681 50.095 68.6744 50.8475C63.8201 52.202 58.2785 52.8793 52.0495 52.8793C50.3659 52.8793 49.3698 52.8685 49.0611 52.847C47.5459 52.847 46.7884 53.7393 46.7884 55.5238V56.2978C46.7884 56.8783 46.9708 57.7275 47.3356 58.8455C47.7283 59.985 47.9248 60.8343 47.9248 61.3933C47.9248 62.5327 47.4057 63.1026 46.3675 63.1026C45.8344 63.1026 45.4135 62.9306 45.1049 62.5866C44.8243 62.2426 44.6839 61.8126 44.6839 61.2966C44.6839 60.7806 44.8523 59.899 45.189 58.652C45.5538 57.4265 45.7362 56.5343 45.7362 55.9753C45.7362 55.4163 45.7222 55.0185 45.694 54.782C45.694 54.567 45.652 54.2875 45.5678 53.9435C45.5117 53.621 45.3995 53.3845 45.2311 53.234C44.8383 52.847 44.1649 52.6535 43.2109 52.6535C41.4712 52.6535 40.6014 53.8146 40.6014 56.1366L40.8539 61.4255C40.8539 62.8446 40.5873 63.554 40.0542 63.554C39.5211 63.554 39.2546 63.167 39.2546 62.393ZM107.774 63.554C106.652 63.554 106.091 62.9198 106.091 61.6513C106.091 60.3827 106.287 58.6735 106.68 56.5235C107.073 54.395 107.27 52.8793 107.27 51.9763C107.27 51.0733 107.185 50.3853 107.017 49.9123L89.9288 11.825C89.3118 10.5135 88.3858 9.53528 87.1512 8.89028L87.7405 8.24528C89.0873 8.95475 90.5888 9.30948 92.2436 9.30948H107.691C109.43 9.30948 110.72 8.85801 111.563 7.95501L112.657 8.60001C112.067 9.18055 111.773 9.94375 111.773 10.8897C111.773 11.8357 112.208 13.3407 113.078 15.4047C113.947 17.4473 114.902 19.4145 115.94 21.3065C118.69 26.3805 120.065 30.4117 120.065 33.4003H120.611C120.611 30.5407 122.267 26.4987 125.578 21.2743C128.917 16.0283 130.587 12.3625 130.587 10.277C130.587 9.69655 130.334 9.12675 129.829 8.56775L130.923 7.92275C131.765 8.84728 133.042 9.30948 134.753 9.30948H146.665C148.348 9.30948 149.611 8.84728 150.452 7.92275L151.589 8.56775C151.055 9.10528 150.789 9.80401 150.789 10.664C150.789 11.524 151.294 12.9967 152.304 15.0823C153.342 17.1463 154.479 19.1565 155.713 21.113C159.024 26.359 160.707 30.4547 160.764 33.4003H161.311C161.311 30.3257 162.686 26.3053 165.436 21.3387C168.185 16.3507 169.561 12.728 169.561 10.4705C169.561 9.76101 169.294 9.13748 168.761 8.60001L169.855 7.95501C170.696 8.85801 171.988 9.30948 173.727 9.30948H189.174C190.829 9.30948 192.33 8.95475 193.677 8.24528L194.224 8.89028C192.99 9.53528 192.078 10.5135 191.489 11.825C191.292 12.2765 190.437 14.1147 188.921 17.3397C187.406 20.5647 185.891 23.8327 184.376 27.1437C182.86 30.4333 181.289 33.9055 179.662 37.5605C175.93 45.838 174.064 50.3638 174.064 51.1377C174.064 51.9117 174.33 52.5675 174.864 53.105L173.727 53.75C172.886 52.8255 171.609 52.3633 169.897 52.3633L154.282 52.331C152.543 52.331 151.266 52.7826 150.452 53.6855L149.316 53.105C149.821 52.589 150.074 51.8795 150.074 50.9766C150.074 50.052 149.596 48.6007 148.643 46.6227C147.688 44.6233 146.636 42.7097 145.486 40.8823C142.455 35.9803 140.94 32.1317 140.94 29.3367H140.435C140.435 32.1747 138.906 36.0447 135.848 40.9467C132.789 45.8273 131.26 49.2887 131.26 51.3313C131.26 52.0193 131.526 52.6105 132.06 53.105L130.923 53.6855C130.109 52.7826 128.832 52.331 127.093 52.331L111.52 52.3633C109.865 52.3633 109.038 52.7395 109.038 53.492L109.752 61.3933C109.752 61.9307 109.584 62.4253 109.248 62.8768C108.911 63.3283 108.42 63.554 107.774 63.554ZM225.917 47.6226L225.243 43.6235V43.2687C225.833 42.4733 226.632 42.0755 227.642 42.0755L261.986 42.1077C263.699 42.1077 265.087 41.6885 266.154 40.85L266.995 41.495C265.76 42.441 265.143 44.247 265.143 46.913C265.143 46.913 265.143 47.5365 265.143 48.7835C265.143 50.955 265.76 52.5353 266.995 53.5243L266.154 54.1693C265.059 53.3307 263.67 52.9115 261.986 52.9115H212.196C209.699 52.9115 207.861 53.277 206.683 54.008C205.336 54.868 204.663 57.2975 204.663 61.2966C204.663 62.909 204.985 65.2848 205.631 68.4238C206.275 71.5844 206.599 73.96 206.599 75.5507C206.599 77.8513 205.532 79.0017 203.399 79.0017C201.099 79.0017 199.949 77.819 199.949 75.4543C199.949 73.8417 200.411 71.455 201.337 68.2948C202.264 65.1343 202.726 62.737 202.726 61.103L202.516 50.2993V12.6957C202.516 11.3627 201.982 10.2985 200.917 9.50301L201.758 8.82575C202.908 9.66428 204.312 10.0835 205.967 10.0835H260.008C261.72 10.0835 263.123 9.66428 264.218 8.82575L265.059 9.50301C263.824 10.449 263.208 12.2335 263.208 14.8565V16.6625C263.208 18.963 263.824 20.5755 265.059 21.5L264.218 22.1127C262.814 21.0163 259.517 20.468 254.327 20.468L233.409 21.2097C228.246 21.2097 224.963 20.6615 223.56 19.565L222.676 20.21C223.771 21.027 224.317 22.1127 224.317 23.4673C224.317 24.8003 223.771 25.8753 222.676 26.6923L223.56 27.305C224.906 26.23 227.741 25.6925 232.062 25.6925L249.697 26.4343C254.046 26.4343 256.922 25.8967 258.325 24.8217L259.209 25.4667C257.974 26.4127 257.357 28.2295 257.357 30.917V32.723C257.357 34.9375 257.974 36.5393 259.209 37.5283L258.325 38.2055C256.978 37.1305 254.13 36.593 249.781 36.593L232.146 37.3025C227.825 37.3025 224.963 36.765 223.56 35.69L222.718 36.335C223.56 36.98 224.051 37.754 224.192 38.657C224.332 39.5385 224.416 40.1727 224.444 40.5597C224.472 40.9253 224.472 41.5057 224.444 42.3013C224.416 43.0753 224.402 43.5375 224.402 43.688L223.686 47.558C223.686 48.332 224.051 48.719 224.781 48.719C225.539 48.719 225.917 48.3535 225.917 47.6226ZM301.256 47.6226L300.582 43.6235V43.2687C301.171 42.4733 301.97 42.0755 302.981 42.0755L337.326 42.1077C339.037 42.1077 340.426 41.6885 341.492 40.85L342.334 41.495C341.099 42.441 340.482 44.247 340.482 46.913C340.482 46.913 340.482 47.5365 340.482 48.7835C340.482 50.955 341.099 52.5353 342.334 53.5243L341.492 54.1693C340.397 53.3307 339.008 52.9115 337.326 52.9115H287.534C285.037 52.9115 283.199 53.277 282.021 54.008C280.674 54.868 280.001 57.2975 280.001 61.2966C280.001 62.909 280.323 65.2848 280.969 68.4238C281.614 71.5844 281.937 73.96 281.937 75.5507C281.937 77.8513 280.87 79.0017 278.738 79.0017C276.437 79.0017 275.287 77.819 275.287 75.4543C275.287 73.8417 275.749 71.455 276.676 68.2948C277.602 65.1343 278.065 62.737 278.065 61.103L277.854 50.2993V12.6957C277.854 11.3627 277.321 10.2985 276.255 9.50301L277.096 8.82575C278.247 9.66428 279.65 10.0835 281.305 10.0835H335.347C337.059 10.0835 338.461 9.66428 339.556 8.82575L340.397 9.50301C339.163 10.449 338.546 12.2335 338.546 14.8565V16.6625C338.546 18.963 339.163 20.5755 340.397 21.5L339.556 22.1127C338.152 21.0163 334.856 20.468 329.665 20.468L308.747 21.2097C303.584 21.2097 300.301 20.6615 298.899 19.565L298.014 20.21C299.109 21.027 299.656 22.1127 299.656 23.4673C299.656 24.8003 299.109 25.8753 298.014 26.6923L298.899 27.305C300.245 26.23 303.079 25.6925 307.4 25.6925L325.035 26.4343C329.385 26.4343 332.261 25.8967 333.663 24.8217L334.547 25.4667C333.313 26.4127 332.695 28.2295 332.695 30.917V32.723C332.695 34.9375 333.313 36.5393 334.547 37.5283L333.663 38.2055C332.316 37.1305 329.469 36.593 325.12 36.593L307.484 37.3025C303.164 37.3025 300.301 36.765 298.899 35.69L298.056 36.335C298.899 36.98 299.39 37.754 299.53 38.657C299.67 39.5385 299.754 40.1727 299.782 40.5597C299.81 40.9253 299.81 41.5057 299.782 42.3013C299.754 43.0753 299.74 43.5375 299.74 43.688L299.024 47.558C299.024 48.332 299.39 48.719 300.119 48.719C300.877 48.719 301.256 48.3535 301.256 47.6226ZM353.74 56.9106L353.655 50.3638V12.5023C353.655 11.1907 353.122 10.1265 352.056 9.30948L352.898 8.66455C353.964 9.48148 355.353 9.89001 357.065 9.89001H393.387C399.195 9.89001 403.124 10.019 405.172 10.277C407.248 10.535 409.058 10.8253 410.601 11.1477C412.145 11.4487 413.435 11.8143 414.473 12.2443C415.512 12.6743 416.578 13.2225 417.672 13.889C418.767 14.5555 419.636 15.308 420.281 16.1465C421.768 18.0815 422.512 20.253 422.512 22.661C422.512 25.0475 422.161 27.09 421.46 28.7885C420.787 30.4655 419.692 31.9705 418.177 33.3035C415.034 36.0985 409.689 37.496 402.141 37.496H378.951C377.211 37.496 375.808 37.0875 374.741 36.2705L373.858 36.8833C374.98 37.7433 375.541 38.8183 375.541 40.1083V50.3638C375.541 52.0193 375.514 54.051 375.457 56.459L373.563 56.588C373.199 54.18 372.721 52.976 372.132 52.976H357.065C356.728 52.976 356.447 53.492 356.222 54.524C356.027 55.5775 355.928 56.5773 355.928 57.5233C355.928 58.4907 356.195 60.1247 356.728 62.4253C357.261 64.7257 357.528 66.3383 357.528 67.2628C357.528 69.241 356.588 70.2297 354.708 70.2297C352.828 70.2297 351.887 69.219 351.887 67.1983C351.887 66.2307 352.196 64.5215 352.814 62.0706C353.431 59.6195 353.74 57.8995 353.74 56.9106ZM375.541 23.2737V25.1765C375.541 26.445 374.98 27.5093 373.858 28.3693L374.741 29.0465C375.836 28.208 377.239 27.7887 378.951 27.7887H392.587C395.422 27.7887 397.119 27.6705 397.68 27.434C398.241 27.176 398.718 26.918 399.111 26.66C399.784 26.187 400.121 25.5097 400.121 24.6283C400.121 23.7467 399.994 23.1017 399.742 22.6933C399.518 22.2633 399.181 21.93 398.732 21.6935C398.283 21.457 397.834 21.2635 397.385 21.113C396.936 20.9625 396.389 20.855 395.744 20.7905C394.846 20.7045 393.85 20.6615 392.756 20.6615H378.951C377.211 20.6615 375.808 20.253 374.741 19.436L373.858 20.0487C374.98 20.9087 375.541 21.9837 375.541 23.2737ZM365.44 55.169L366.535 62.8123C366.535 64.1237 365.904 64.7795 364.64 64.7795C363.406 64.7795 362.789 64.113 362.789 62.78C362.789 62.006 363.041 60.6515 363.547 58.7166C364.079 56.803 364.346 55.5453 364.346 54.9433C364.346 54.3627 364.332 53.6103 364.303 52.6858C364.303 51.7613 364.303 50.9873 364.303 50.3638L366.198 52.073C366.001 52.073 365.819 52.417 365.65 53.105C365.51 53.8145 365.44 54.5025 365.44 55.169ZM456.604 64.3926L457.067 58.0715C457.067 54.4595 456.478 52.6535 455.299 52.6535C454.121 52.6535 453.531 53.793 453.531 56.072V57.0073C453.531 57.9317 453.798 59.3078 454.331 61.1353C454.892 62.9627 455.173 64.3495 455.173 65.2955C455.173 66.7575 454.458 67.4886 453.026 67.4886C451.623 67.4886 450.922 66.7575 450.922 65.2955C450.922 64.3065 451.216 62.866 451.806 60.974C452.395 59.082 452.69 57.6415 452.69 56.6526L452.605 43.4945C452.605 42.828 452.718 42.312 452.942 41.9465C453.194 41.581 453.7 41.3123 454.458 41.1403L454.036 39.9147C453.643 40.0007 453.293 40.0437 452.984 40.0437C452.704 40.0437 452.409 39.9685 452.101 39.818C451.735 39.6245 451.315 39.2375 450.837 38.657L429.499 12.0185C428.657 10.965 427.507 10.105 426.048 9.43855L426.426 8.89028C427.829 9.49228 429.415 9.79328 431.183 9.79328L448.144 9.72875C449.827 9.72875 451.02 9.26655 451.722 8.34201L453.026 8.89028C452.662 9.40628 452.48 9.97601 452.48 10.5995C452.48 11.2015 453.04 12.2443 454.162 13.7277C455.313 15.2113 456.561 16.6517 457.908 18.0493C459.284 19.4467 460.532 20.9947 461.654 22.6933C462.805 24.3917 463.38 25.8645 463.38 27.1115H464.263V26.8535C464.263 24.8325 466.088 21.887 469.735 18.017C473.383 14.147 475.207 11.5563 475.207 10.2447C475.207 9.90075 475.01 9.44928 474.618 8.89028L475.923 8.34201C476.624 9.26655 477.831 9.72875 479.542 9.72875L495.494 9.79328C497.233 9.79328 498.804 9.49228 500.208 8.89028L500.587 9.43855C499.071 10.1265 497.906 10.9865 497.093 12.0185L475.544 38.657C474.814 39.5815 474.07 40.0437 473.313 40.0437C473.004 40.0437 472.682 40.0007 472.344 39.9147L471.84 41.108C473.187 41.4305 473.86 42.5055 473.86 44.333L473.608 48.8158C473.608 50.8797 474.197 52.3633 475.376 53.2663L474.491 53.9113C473.397 53.0728 472.009 52.6535 470.324 52.6535H460.476C458.68 52.6535 457.783 54.5993 457.783 58.4908L458.414 64.4893C458.414 65.2417 458.105 65.618 457.488 65.618C456.898 65.618 456.604 65.2095 456.604 64.3926Z" fill="url(#paint0_linear_10037_3031)"/>
</g>
<defs>
<filter id="filter0_d_10037_3031" x="-0.796631" y="-2.49652" width="511.383" height="91.4982" filterUnits="userSpaceOnUse" color-interpolation-filters="sRGB">
<feFlood flood-opacity="0" result="BackgroundImageFix"/>
<feColorMatrix in="SourceAlpha" type="matrix" values="0 0 0 0 0 0 0 0 0 0 0 0 0 0 0 0 0 0 127 0" result="hardAlpha"/>
<feOffset/>
<feGaussianBlur stdDeviation="5"/>
<feComposite in2="hardAlpha" operator="out"/>
<feColorMatrix type="matrix" values="0 0 0 0 0.956667 0 0 0 0 0.745712 0 0 0 0 0 0 0 0 0.2 0"/>
<feBlend mode="normal" in2="BackgroundImageFix" result="effect1_dropShadow_10037_3031"/>
<feBlend mode="normal" in="SourceGraphic" in2="effect1_dropShadow_10037_3031" result="shape"/>
</filter>
<linearGradient id="paint0_linear_10037_3031" x1="258.592" y1="-32.336" x2="258.592" y2="108.704" gradientUnits="userSpaceOnUse">
<stop stop-color="#F27F0C"/>
<stop offset="1" stop-color="#FFAB00"/>
</linearGradient>
</defs>
</svg>
